<?xml version="1.0"?><COLLADA xmlns="http://www.collada.org/2005/11/COLLADASchema" version="1.4.1">
<asset><created>2026-09-20T00:00:00Z</created><modified>2026-09-20T00:00:00Z</modified><unit name="meter" meter="1"/><up_axis>Z_UP</up_axis></asset>
<library_images><image id="image"><init_from>../textures/wood.png</init_from></image></library_images>
<library_effects><effect id="effect"><profile_COMMON><newparam sid="surface"><surface type="2D"><init_from>image</init_from></surface></newparam><newparam sid="sampler"><sampler2D><source>surface</source><wrap_s>WRAP</wrap_s><wrap_t>WRAP</wrap_t></sampler2D></newparam><technique sid="common"><lambert><diffuse><texture texture="sampler" texcoord="UVMap"/></diffuse></lambert></technique></profile_COMMON></effect></library_effects>
<library_materials><material id="material"><instance_effect url="#effect"/></material></library_materials>
<library_geometries><geometry id="box"><mesh><source id="pos"><float_array id="pos-a" count="72">-0.31134316024458564 -0.06 0.0225 0.31134316024458564 -0.06 0.0225 0.31134316024458564 0.06 0.0225 -0.31134316024458564 0.06 0.0225 -0.31134316024458564 0.06 -0.0225 0.31134316024458564 0.06 -0.0225 0.31134316024458564 -0.06 -0.0225 -0.31134316024458564 -0.06 -0.0225 0.31134316024458564 -0.06 -0.0225 0.31134316024458564 0.06 -0.0225 0.31134316024458564 0.06 0.0225 0.31134316024458564 -0.06 0.0225 -0.31134316024458564 0.06 -0.0225 -0.31134316024458564 -0.06 -0.0225 -0.31134316024458564 -0.06 0.0225 -0.31134316024458564 0.06 0.0225 0.31134316024458564 0.06 -0.0225 -0.31134316024458564 0.06 -0.0225 -0.31134316024458564 0.06 0.0225 0.31134316024458564 0.06 0.0225 -0.31134316024458564 -0.06 -0.0225 0.31134316024458564 -0.06 -0.0225 0.31134316024458564 -0.06 0.0225 -0.31134316024458564 -0.06 0.0225</float_array><technique_common><accessor source="#pos-a" count="24" stride="3"><param name="X" type="float"/><param name="Y" type="float"/><param name="Z" type="float"/></accessor></technique_common></source><source id="norm"><float_array id="norm-a" count="72">0 0 1 0 0 1 0 0 1 0 0 1 0 0 -1 0 0 -1 0 0 -1 0 0 -1 1 0 0 1 0 0 1 0 0 1 0 0 -1 0 0 -1 0 0 -1 0 0 -1 0 0 0 1 0 0 1 0 0 1 0 0 1 0 0 -1 0 0 -1 0 0 -1 0 0 -1 0</float_array><technique_common><accessor source="#norm-a" count="24" stride="3"><param name="X" type="float"/><param name="Y" type="float"/><param name="Z" type="float"/></accessor></technique_common></source><source id="uv"><float_array id="uv-a" count="48">0 0 0.6226863204891713 0 0.6226863204891713 0.12 0 0.12 0 0 0.6226863204891713 0 0.6226863204891713 0.12 0 0.12 0 0 0.12 0 0.12 0.045 0 0.045 0 0 0.12 0 0.12 0.045 0 0.045 0 0 0.6226863204891713 0 0.6226863204891713 0.045 0 0.045 0 0 0.6226863204891713 0 0.6226863204891713 0.045 0 0.045</float_array><technique_common><accessor source="#uv-a" count="24" stride="2"><param name="S" type="float"/><param name="T" type="float"/></accessor></technique_common></source><vertices id="vertices"><input semantic="POSITION" source="#pos"/></vertices><triangles count="12" material="mat"><input semantic="VERTEX" source="#vertices" offset="0"/><input semantic="NORMAL" source="#norm" offset="1"/><input semantic="TEXCOORD" source="#uv" offset="2" set="0"/><p>0 0 0 1 1 1 2 2 2 0 0 0 2 2 2 3 3 3 4 4 4 5 5 5 6 6 6 4 4 4 6 6 6 7 7 7 8 8 8 9 9 9 10 10 10 8 8 8 10 10 10 11 11 11 12 12 12 13 13 13 14 14 14 12 12 12 14 14 14 15 15 15 16 16 16 17 17 17 18 18 18 16 16 16 18 18 18 19 19 19 20 20 20 21 21 21 22 22 22 20 20 20 22 22 22 23 23 23</p></triangles></mesh></geometry></library_geometries>
<library_visual_scenes><visual_scene id="Scene"><node id="Box"><instance_geometry url="#box"><bind_material><technique_common><instance_material symbol="mat" target="#material"><bind_vertex_input semantic="UVMap" input_semantic="TEXCOORD" input_set="0"/></instance_material></technique_common></bind_material></instance_geometry></node></visual_scene></library_visual_scenes><scene><instance_visual_scene url="#Scene"/></scene></COLLADA>